# xmcd
#
# Track frame offsets:
#	182
#	12007
#	26980
#	38782
#	54537
#	67805
#	82375
#	96532
#	113667
#	126262
#	138392
#	150965
#	165535
#	176627
#
# Disc length: 2548 seconds
# Revision: 0
# Processed by: cddbd v1.5.2PL0 Copyright (c) Steve Scherf et al.
# Submitted via: dBpowerAMP V12.0
#
DISCID=b709f20e
DTITLE=Various Artist - Coplas de España Vol 2 CD 2
DYEAR=1991
DGENRE=Copla
TTITLE0=Manolo Escobar - El Porompompero
TTITLE1=Juanita Reina - Capote de grana y oro
TTITLE2=Miguel de los Reyes - Noches bonitas de España
TTITLE3=Imperio Argentina - Echale guindas al pavo
TTITLE4=Pepe Cordoba - Los tres olivos
TTITLE5=Pepe Blanco - Cocidito madrileño
TTITLE6=Finita Imperio - Mi madre si que me quiere
TTITLE7=Concha Piquer - La Parrala
TTITLE8=Antonio Molina - Adios a España
TTITLE9=Lola Flores - Pepa Bandera
TTITLE10=Carmen Morell - Bombon
TTITLE11=Los Churumbeles de España - No te puedo querer
TTITLE12=Gracia de Triana - La hija de Don Juan Alba
TTITLE13=Estrellita de Palma - Manolo de mis amores
EXTD=
EXTT0=
EXTT1=
EXTT2=
EXTT3=
EXTT4=
EXTT5=
EXTT6=
EXTT7=
EXTT8=
EXTT9=
EXTT10=
EXTT11=
EXTT12=
EXTT13=
PLAYORDER=
